# File created by Blade
# Date/Time:  Thu Sep 25 15:41:58 2014
# Frame Rate: 120.000 fps
#------------------------------------------------------
:FULLY-SPECIFIED
:DEGREES
337
root 27.193330 32.364922 -2.374017 151.173825 -74.986185 -119.168081
Spine 23.932764 13.188599 8.288922
Head -34.377047 -1.436797 5.469958
LeftShoulder 15.188829 4.858560 15.854920
LeftArm 61.009605 16.158710 -41.708581
LeftForeArm 0.999585 0.000000 13.822032
LeftHand -25.867926 -0.000000 -0.759217
LeftHandThumb1 -26.253704 0.000000 33.147579
RightShoulder 8.703889 26.550029 -18.581531
RightArm 30.052274 -29.952627 69.303664
RightForeArm -25.284687 -0.000000 14.206828
RightHand -2.733955 -0.000000 6.650418
RightHandThumb1 -24.326973 -0.000000 -32.862282
LeftUpLeg -70.284514 11.621981 -0.134218
LeftLeg 10.052659 -0.000000 -0.000000
LeftFoot 39.575036 28.527417 -12.905130
LeftToeBase 26.900464 -0.000000 -0.000000
RightUpLeg -30.393966 0.628503 22.405510
RightLeg 3.871002 -0.000000 -0.000000
RightFoot -7.914805 -7.851106 -9.102776
RightToeBase -0.777147 -0.000000 0.000000
338
root 27.155802 32.365855 -2.375589 151.248521 -75.016424 -119.064643
Spine 24.249599 13.223168 8.188230
Head -34.797702 -1.484985 5.567571
LeftShoulder 15.497069 4.466237 16.153673
LeftArm 61.266199 15.280075 -41.397611
LeftForeArm 0.953218 -0.000000 13.874101
LeftHand -25.665932 -0.000000 -0.967642
LeftHandThumb1 -26.253704 0.000000 33.147579
RightShoulder 8.936526 26.814699 -18.685041
RightArm 30.702345 -29.364493 68.701478
RightForeArm -25.011014 0.000000 14.224574
RightHand -2.821758 -0.000000 6.712042
RightHandThumb1 -24.326973 -0.000000 -32.862282
LeftUpLeg -70.596323 11.535713 -0.204619
LeftLeg 10.097132 -0.000000 -0.000000
LeftFoot 39.498051 28.538695 -13.019269
LeftToeBase 26.810197 -0.000000 -0.000000
RightUpLeg -30.491989 0.644184 22.392809
RightLeg 3.890744 -0.000000 -0.000000
RightFoot -8.092091 -7.749729 -8.961013
RightToeBase -0.550147 -0.000000 0.000000
339
root 27.120804 32.369648 -2.373913 151.320692 -75.076821 -118.898861
Spine 24.506347 13.217799 8.089208
Head -35.265532 -1.479232 5.577849
LeftShoulder 15.735053 4.085502 16.392127
LeftArm 61.519078 14.271805 -41.173301
LeftForeArm 0.564020 -0.000000 14.028141
LeftHand -25.693395 0.000000 -1.380904
LeftHandThumb1 -26.253704 0.000000 33.147579
RightShoulder 9.208859 27.265929 -18.837927
RightArm 31.082642 -28.701104 68.326490
RightForeArm -24.937282 -0.000000 14.256558
RightHand -2.953191 -0.000000 6.758115
RightHandThumb1 -24.326973 -0.000000 -32.862282
LeftUpLeg -71.005765 11.510487 -0.529540
LeftLeg 10.099623 -0.000000 -0.000000
LeftFoot 39.652096 28.344848 -12.828795
LeftToeBase 26.473986 -0.000000 -0.000000
RightUpLeg -30.663660 0.601759 22.406845
RightLeg 3.862220 -0.000000 -0.000000
RightFoot -8.084094 -7.778241 -9.007363
RightToeBase -0.800886 -0.000000 0.000000
340
root 27.079052 32.373813 -2.375633 151.492309 -75.083272 -118.851905
Spine 24.781366 13.265096 7.980019
Head -35.688687 -1.501838 5.622220
LeftShoulder 15.986160 3.805405 16.684707
LeftArm 61.864948 13.314852 -40.696009
LeftForeArm 0.772548 -0.000000 14.141841
LeftHand -25.852626 0.000000 -2.073103
LeftHandThumb1 -26.253704 0.000000 33.147579
RightShoulder 9.438688 27.598451 -18.995969
RightArm 31.644929 -27.982028 67.867747
RightForeArm -24.689634 -0.000000 14.261177
RightHand -2.903917 0.000000 6.764147
RightHandThumb1 -24.326973 -0.000000 -32.862282
LeftUpLeg -71.309930 11.426035 -0.547427
LeftLeg 10.098015 -0.000000 -0.000000
LeftFoot 39.606428 28.401480 -12.912138
LeftToeBase 26.331293 -0.000000 -0.000000
RightUpLeg -30.651373 1.017904 22.201082
RightLeg 3.564650 -0.000000 -0.000000
RightFoot -7.949970 -8.173337 -8.923692
RightToeBase -0.754118 -0.000000 0.000000
341
root 27.030686 32.375470 -2.376632 151.611530 -75.116767 -118.749787
Spine 25.020261 13.266814 7.847839
Head -36.089583 -1.511814 5.694281
LeftShoulder 16.183544 3.488505 16.976416
LeftArm 62.158553 12.373538 -40.335850
LeftForeArm 0.628687 -0.000000 14.258051
LeftHand -25.561933 -0.000000 -0.762402
LeftHandThumb1 -26.253704 0.000000 33.147579
RightShoulder 9.739494 27.975321 -19.101855
RightArm 32.074557 -27.315160 67.392456
RightForeArm -24.511682 -0.000000 14.406930
RightHand -3.032373 0.000000 6.754015
RightHandThumb1 -24.326973 -0.000000 -32.862282
LeftUpLeg -71.641239 11.337024 -0.642649
LeftLeg 10.124458 -0.000000 -0.000000
LeftFoot 39.638102 28.367756 -12.989522
LeftToeBase 26.225843 -0.000000 -0.000000
RightUpLeg -30.865351 0.779585 22.327375
RightLeg 3.760035 -0.000000 -0.000000
RightFoot -8.195910 -7.890362 -8.949312
RightToeBase -0.774881 -0.000000 0.000000
342
root 26.979391 32.377612 -2.377707 151.679636 -75.151098 -118.589473
Spine 25.241009 13.272252 7.755861
Head -36.432494 -1.519571 5.709618
LeftShoulder 16.427568 3.123173 17.274647
LeftArm 62.436526 11.493513 -39.883203
LeftForeArm 0.525062 -0.000000 14.328435
LeftHand -25.663846 -0.000000 -0.596390
LeftHandThumb1 -26.253704 0.000000 33.147579
RightShoulder 10.028128 28.348586 -19.282154
RightArm 32.512558 -26.549926 66.995703
RightForeArm -24.263109 -0.000000 14.443364
RightHand -3.092986 0.000000 6.737379
RightHandThumb1 -24.326973 -0.000000 -32.862282
LeftUpLeg -72.008728 11.277198 -0.807254
LeftLeg 10.200153 -0.000000 -0.000000
LeftFoot 39.640932 28.244892 -13.016814
LeftToeBase 25.876224 -0.000000 -0.000000
RightUpLeg -31.003414 0.738051 22.343825
RightLeg 3.812353 -0.000000 -0.000000
RightFoot -8.392982 -7.679568 -8.743620
RightToeBase -0.659569 -0.000000 0.000000
343
root 26.922227 32.378649 -2.375183 151.889739 -75.223366 -118.583936
Spine 25.443272 13.263829 7.564861
Head -36.718235 -1.496082 5.846796
LeftShoulder 16.648961 2.823546 17.575741
LeftArm 62.781907 10.531585 -39.302663
LeftForeArm 0.746647 -0.000000 14.300455
LeftHand -25.451796 0.000000 -0.972388
LeftHandThumb1 -26.253704 0.000000 33.147579
RightShoulder 10.320009 28.752344 -19.395458
RightArm 32.957860 -25.878556 66.510410
RightForeArm -23.906594 -0.000000 14.500934
RightHand -3.046632 -0.000000 6.696500
RightHandThumb1 -24.326973 -0.000000 -32.862282
LeftUpLeg -72.338355 11.176144 -0.995460
LeftLeg 10.250909 -0.000000 -0.000000
LeftFoot 39.638768 28.266428 -13.044005
LeftToeBase 25.701835 -0.000000 -0.000000
RightUpLeg -31.245754 0.371298 22.473114
RightLeg 4.076439 -0.000000 -0.000000
RightFoot -8.714305 -7.231884 -8.727286
RightToeBase -0.731001 -0.000000 0.000000
344
root 26.862704 32.381110 -2.380023 151.861914 -75.250239 -118.320895
Spine 25.633362 13.282692 7.490889
Head -37.015081 -1.540586 5.902842
LeftShoulder 16.864943 2.548079 17.897567
LeftArm 63.092791 9.518814 -38.843529
LeftForeArm 0.876287 0.000000 14.429011
LeftHand -25.512331 -0.000000 -1.219048
LeftHandThumb1 -26.253704 0.000000 33.147579
RightShoulder 10.543795 29.149147 -19.570199
RightArm 33.440668 -25.242065 66.001891
RightForeArm -23.603495 -0.000000 14.573770
RightHand -3.244404 -0.000000 6.643043
RightHandThumb1 -24.326973 -0.000000 -32.862282
LeftUpLeg -72.667254 11.099442 -1.090097
LeftLeg 10.294087 -0.000000 -0.000000
LeftFoot 39.618149 28.319964 -13.054129
LeftToeBase 25.486926 -0.000000 -0.000000
RightUpLeg -31.307072 0.519020 22.422111
RightLeg 3.945324 -0.000000 -0.000000
RightFoot -8.682836 -7.460327 -8.755480
RightToeBase -0.885388 -0.000000 0.000000
345
root 26.797548 32.383034 -2.382278 151.900004 -75.268040 -118.114163
Spine 25.788177 13.309062 7.411607
Head -37.272266 -1.557166 5.971295
LeftShoulder 17.060754 2.325037 18.156017
LeftArm 63.461290 8.461624 -38.279589
LeftForeArm 1.142189 -0.000000 14.463545
LeftHand -25.583998 -0.000000 -1.318183
LeftHandThumb1 -26.253704 0.000000 33.147579
RightShoulder 10.785527 29.512439 -19.741187
RightArm 33.914877 -24.526889 65.529278
RightForeArm -23.368144 -0.000000 14.605848
RightHand -3.189847 0.000000 6.520936
RightHandThumb1 -24.326973 -0.000000 -32.862282
LeftUpLeg -73.007839 11.005452 -1.138093
LeftLeg 10.400462 -0.000000 -0.000000
LeftFoot 39.528362 28.337465 -12.914289
LeftToeBase 25.034289 -0.000000 -0.000000
RightUpLeg -31.333081 0.756636 22.302568
RightLeg 3.788614 -0.000000 -0.000000
RightFoot -8.751022 -7.539814 -8.554615
RightToeBase -0.727988 -0.000000 0.000000
346
root 26.728400 32.384148 -2.385130 151.462360 -75.334890 -117.422310
Spine 25.926519 13.210235 7.454972
Head -37.486813 -1.563668 5.938580
LeftShoulder 17.252790 2.101618 18.444856
LeftArm 63.874381 7.462437 -37.681618
LeftForeArm 1.166495 -0.000000 14.408818
LeftHand -25.728786 -0.000000 -1.401552
LeftHandThumb1 -26.253704 0.000000 33.147579
RightShoulder 11.046606 29.996907 -19.935457
RightArm 34.229621 -23.910551 65.052053
RightForeArm -23.219691 -0.000000 14.757188
RightHand -3.318307 -0.000000 6.431190
RightHandThumb1 -24.326973 -0.000000 -32.862282
LeftUpLeg -73.322698 10.802686 -1.078515
LeftLeg 10.448371 -0.000000 -0.000000
LeftFoot 39.512700 28.401918 -12.744048
LeftToeBase 24.826097 -0.000000 -0.000000
RightUpLeg -31.429775 0.765678 22.346009
RightLeg 3.729131 -0.000000 -0.000000
RightFoot -8.846806 -7.622828 -8.450831
RightToeBase -0.827141 -0.000000 0.000000
347
root 26.653103 32.385643 -2.390488 151.805985 -75.334517 -117.528467
Spine 26.065260 13.316573 7.239671
Head -37.761261 -1.566922 6.142104
LeftShoulder 17.433151 1.757065 18.792657
LeftArm 64.141056 6.503395 -37.124611
LeftForeArm 1.204882 -0.000000 14.414437
LeftHand -25.626528 -0.000000 -1.385751
LeftHandThumb1 -26.253704 0.000000 33.147579
RightShoulder 11.271267 30.302046 -20.030470
RightArm 34.822805 -23.262074 64.412392
RightForeArm -22.958686 0.000000 14.830352
RightHand -3.409534 0.000000 6.299551
RightHandThumb1 -24.326973 -0.000000 -32.862282
LeftUpLeg -73.620292 10.823039 -1.291199
LeftLeg 10.442737 -0.000000 -0.000000
LeftFoot 39.522253 28.277233 -12.650692
LeftToeBase 24.321495 -0.000000 -0.000000
RightUpLeg -31.498614 0.953595 22.227978
RightLeg 3.709845 -0.000000 -0.000000
RightFoot -8.953084 -7.669339 -8.410578
RightToeBase -0.786011 -0.000000 0.000000
